<svg width="20" height="22" viewBox="0 0 20 22" fill="none" xmlns="http://www.w3.org/2000/svg">
<path d="M10.3602 5.00391C9.66005 5.00391 8.97566 5.17466 8.39353 5.49457C7.8114 5.81449 7.35769 6.2692 7.08977 6.8012C6.82185 7.33319 6.75175 7.91859 6.88833 8.48336C7.02492 9.04812 7.36206 9.56689 7.85711 9.97407C8.35217 10.3812 8.98291 10.6585 9.66958 10.7709C10.3562 10.8832 11.068 10.8256 11.7148 10.6052C12.3616 10.3848 12.9145 10.0117 13.3035 9.53288C13.6924 9.05409 13.9 8.49119 13.9 7.91536C13.899 7.14346 13.5257 6.40343 12.862 5.85762C12.1984 5.31181 11.2987 5.00479 10.3602 5.00391ZM10.3602 9.37109C10.0101 9.37109 9.66791 9.28571 9.37685 9.12575C9.08579 8.96579 8.85893 8.73844 8.72497 8.47244C8.59101 8.20644 8.55596 7.91374 8.62425 7.63136C8.69254 7.34898 8.86111 7.08959 9.10864 6.88601C9.35617 6.68242 9.67154 6.54377 10.0149 6.4876C10.3582 6.43143 10.7141 6.46026 11.0375 6.57044C11.3609 6.68062 11.6373 6.86721 11.8318 7.1066C12.0263 7.34599 12.1301 7.62744 12.1301 7.91536C12.1296 8.30131 11.9429 8.67132 11.6111 8.94422C11.2793 9.21713 10.8294 9.37064 10.3602 9.37109Z" fill="#25BEC8"/>
<path d="M17.1612 2.31666C15.4794 0.933738 13.2343 0.112227 10.8594 0.0106776C8.48439 -0.0908715 6.14787 0.534741 4.30075 1.76677C2.45363 2.9988 1.22685 4.74991 0.857188 6.68213C0.487521 8.61435 1.00117 10.5907 2.299 12.2297L8.9864 20.6736C9.13522 20.8614 9.3387 21.0158 9.57839 21.1227C9.81809 21.2295 10.0864 21.2855 10.3591 21.2855C10.6317 21.2855 10.9 21.2295 11.1397 21.1227C11.3794 21.0158 11.5829 20.8614 11.7317 20.6736L18.4193 12.2297C19.6236 10.7093 20.1558 8.89458 19.9267 7.08978C19.6977 5.28498 18.7213 3.59978 17.1612 2.31666ZM16.9364 11.4352L10.3591 19.7396L3.78176 11.4352C1.76847 8.89313 2.20028 5.49128 4.80849 3.34599C5.53739 2.74647 6.40274 2.27089 7.35512 1.94643C8.30749 1.62197 9.32824 1.45497 10.3591 1.45497C11.3899 1.45497 12.4107 1.62197 13.3631 1.94643C14.3154 2.27089 15.1808 2.74647 15.9097 3.34599C18.5179 5.49128 18.9497 8.89313 16.9364 11.4352Z" fill="#25BEC8"/>
</svg>
