<svg width="20" height="20" viewBox="0 0 20 20" fill="none" xmlns="http://www.w3.org/2000/svg">
<path d="M10.3595 0C5.04693 0 0.740234 4.47717 0.740234 10C0.740234 15.5228 5.04693 20 10.3595 20C15.672 20 19.9787 15.5228 19.9787 10C19.9787 4.47717 15.672 0 10.3595 0ZM7.11486 17.9861C5.07887 17.0898 3.46815 15.3903 2.63621 13.2607C1.80427 11.131 1.8191 8.74524 2.67743 6.62696C2.71823 6.52663 2.76128 6.42758 2.80569 6.32925L4.90857 8.29692V10.9317L7.99875 14.3333H9.55787V16.377L7.67202 18.2068C7.48439 18.1403 7.29867 18.0667 7.11486 17.9861ZM16.2544 16.1283C15.4812 16.9344 14.5624 17.5737 13.5507 18.0093C12.539 18.445 11.4545 18.6684 10.3595 18.6667C9.96089 18.6667 9.5628 18.6374 9.16821 18.5789L10.8404 16.9564V13H8.55186L6.19114 10.4016V7.70308L3.45366 5.142C4.35938 3.75511 5.63048 2.66904 7.1147 2.01388C8.38476 1.45535 9.76834 1.23342 11.1413 1.368C12.5142 1.50259 13.8335 1.98947 14.9807 2.78496L13.1545 5.22588L13.7753 6.83942L13.3551 7.27629L10.2041 6.62117L8.43563 8V11.6667H15.4897L17.5076 14.4636C17.1567 15.0695 16.7358 15.6286 16.2544 16.1283ZM18.6961 10C18.698 11.0662 18.5095 12.1235 18.1401 13.1182L16.131 10.3333H9.71819V8.66667L10.5149 8.0455L13.7767 8.72371L15.2803 7.16058L14.6186 5.44079L15.9893 3.60842C16.0791 3.69408 16.1674 3.78186 16.2542 3.87175C17.0297 4.67549 17.6447 5.63069 18.0638 6.68241C18.4828 7.73413 18.6978 8.86161 18.6961 10Z" fill="#25BEC8"/>
</svg>
