<svg width="21" height="23" viewBox="0 0 21 23" fill="none" xmlns="http://www.w3.org/2000/svg">
<path d="M10.6652 6.00879C9.94026 6.00879 9.23164 6.18401 8.62891 6.51228C8.02618 6.84056 7.5564 7.30716 7.279 7.85306C7.00159 8.39897 6.92901 8.99967 7.07043 9.5792C7.21185 10.1587 7.56092 10.6911 8.0735 11.1089C8.58608 11.5267 9.23915 11.8112 9.95012 11.9265C10.6611 12.0418 11.398 11.9826 12.0678 11.7565C12.7375 11.5304 13.3099 11.1475 13.7126 10.6562C14.1154 10.1649 14.3303 9.58724 14.3303 8.99635C14.3292 8.20428 13.9427 7.4449 13.2556 6.88482C12.5685 6.32474 11.6369 6.00969 10.6652 6.00879ZM10.6652 10.4901C10.3027 10.4901 9.9484 10.4025 9.64703 10.2384C9.34567 10.0742 9.11078 9.84095 8.97208 9.568C8.83337 9.29504 8.79708 8.99469 8.86779 8.70493C8.9385 8.41516 9.11304 8.149 9.36933 7.94009C9.62562 7.73118 9.95216 7.58891 10.3076 7.53127C10.6631 7.47363 11.0316 7.50322 11.3665 7.61628C11.7013 7.72934 11.9875 7.9208 12.1889 8.16645C12.3903 8.4121 12.4977 8.70091 12.4977 8.99635C12.4972 9.39239 12.3039 9.77207 11.9604 10.0521C11.6168 10.3321 11.151 10.4897 10.6652 10.4901Z" fill="#25BEC8"/>
<path d="M17.7073 3.25124C15.9659 1.83217 13.6414 0.989184 11.1824 0.88498C8.72336 0.780776 6.30413 1.42274 4.39163 2.68698C2.47913 3.95122 1.20892 5.7481 0.826171 7.73083C0.443419 9.71356 0.975252 11.7416 2.31903 13.4235L9.24314 22.088C9.39723 22.2808 9.60791 22.4392 9.85609 22.5489C10.1043 22.6585 10.3821 22.716 10.6644 22.716C10.9467 22.716 11.2245 22.6585 11.4727 22.5489C11.7209 22.4392 11.9316 22.2808 12.0856 22.088L19.01 13.4235C20.2569 11.8633 20.8079 10.0011 20.5707 8.14914C20.3336 6.29716 19.3226 4.56791 17.7073 3.25124ZM17.4745 12.6081L10.6644 21.1297L3.85427 12.6081C1.76971 9.99963 2.2168 6.50885 4.91734 4.30749C5.67205 3.69229 6.56803 3.20428 7.55411 2.87134C8.5402 2.53839 9.59709 2.36703 10.6644 2.36703C11.7318 2.36703 12.7886 2.53839 13.7747 2.87134C14.7608 3.20428 15.6568 3.69229 16.4115 4.30749C19.112 6.50885 19.5591 9.99963 17.4745 12.6081Z" fill="#25BEC8"/>
</svg>
