<svg width="21" height="21" viewBox="0 0 21 21" fill="none" xmlns="http://www.w3.org/2000/svg">
<path d="M10.6648 -0.00683594C5.16422 -0.00683594 0.705078 4.58737 0.705078 10.2546C0.705078 15.9218 5.16422 20.516 10.6648 20.516C16.1654 20.516 20.6246 15.9218 20.6246 10.2546C20.6246 4.58737 16.1654 -0.00683594 10.6648 -0.00683594ZM7.30536 18.4495C5.1973 17.5297 3.52955 15.7858 2.66817 13.6005C1.80678 11.4152 1.82213 8.96702 2.71085 6.79336C2.75309 6.6904 2.79766 6.58877 2.84364 6.48787L5.02097 8.50697V11.2106L8.22053 14.7012H9.83484V16.7982L7.88223 18.6759C7.68796 18.6076 7.49567 18.5322 7.30536 18.4495ZM16.7684 16.543C15.9679 17.3703 15.0165 18.0263 13.969 18.4733C12.9215 18.9203 11.7986 19.1495 10.6648 19.1478C10.2521 19.1478 9.83995 19.1177 9.43139 19.0577L11.1628 17.3928V13.333H8.79322L6.34893 10.6667V7.89761L3.51456 5.26958C4.45234 3.84644 5.76843 2.73198 7.30519 2.05968C8.6202 1.48656 10.0528 1.25883 11.4743 1.39693C12.8958 1.53503 14.2618 2.03464 15.4496 2.85092L13.5588 5.35565L14.2016 7.01137L13.7665 7.45967L10.5039 6.78742L8.67287 8.20229V11.9648H15.9767L18.0659 14.8348C17.7027 15.4566 17.2669 16.0303 16.7684 16.543ZM19.2966 10.2546C19.2985 11.3487 19.1033 12.4336 18.7209 13.4543L16.6407 10.5966H10.0008V8.88639L10.8257 8.24898L14.203 8.94492L15.7598 7.34093L15.0747 5.57618L16.4939 3.69591C16.5869 3.78382 16.6783 3.87389 16.7682 3.96613C17.5712 4.79087 18.2079 5.77104 18.6418 6.85026C19.0757 7.92947 19.2983 9.08643 19.2966 10.2546Z" fill="#25BEC8"/>
</svg>
