<svg width="60" height="14" viewBox="0 0 60 14" fill="none" xmlns="http://www.w3.org/2000/svg">
<path d="M2.34949 13.9468C2.09832 14.1316 1.81331 13.8077 1.86406 13.3943L2.40415 8.97977L0.111697 5.84761C-0.102387 5.55455 0.00888444 5.01883 0.295848 4.96097L3.48303 4.31139L4.90418 0.272991C5.03237 -0.090997 5.3792 -0.090997 5.50739 0.272991L6.92855 4.31139L10.1157 4.96097C10.4027 5.01883 10.514 5.55455 10.2992 5.84761L8.00743 8.97977L8.54752 13.3943C8.59827 13.8077 8.31326 14.1316 8.06209 13.9468L5.20481 11.8413L2.34884 13.9468H2.34949Z" fill="#FFC46A"/>
<path d="M14.746 13.9468C14.4948 14.1316 14.2098 13.8077 14.2605 13.3943L14.8006 8.97977L12.5082 5.84761C12.2941 5.55455 12.4054 5.01883 12.6923 4.96097L15.8795 4.31139L17.3007 0.272991C17.4289 -0.090997 17.7757 -0.090997 17.9039 0.272991L19.325 4.31139L22.5122 4.96097C22.7992 5.01883 22.9104 5.55455 22.6957 5.84761L20.4039 8.97977L20.944 13.3943C20.9948 13.8077 20.7097 14.1316 20.4586 13.9468L17.6013 11.8413L14.7453 13.9468H14.746Z" fill="#FFC46A"/>
<path d="M27.1444 13.9468C26.8932 14.1316 26.6082 13.8077 26.659 13.3943L27.1991 8.97977L24.9066 5.84761C24.6925 5.55455 24.8038 5.01883 25.0908 4.96097L28.278 4.31139L29.6991 0.272991C29.8273 -0.090997 30.1741 -0.090997 30.3023 0.272991L31.7235 4.31139L34.9107 4.96097C35.1976 5.01883 35.3089 5.55455 35.0942 5.84761L32.8023 8.97977L33.3424 13.3943C33.3932 13.8077 33.1082 14.1316 32.857 13.9468L29.9997 11.8413L27.1438 13.9468H27.1444Z" fill="#FFC46A"/>
<path d="M39.5409 13.9468C39.2897 14.1316 39.0047 13.8077 39.0555 13.3943L39.5956 8.97977L37.3031 5.84761C37.089 5.55455 37.2003 5.01883 37.4873 4.96097L40.6744 4.31139L42.0956 0.272991C42.2238 -0.090997 42.5706 -0.090997 42.6988 0.272991L44.12 4.31139L47.3071 4.96097C47.5941 5.01883 47.7054 5.55455 47.4906 5.84761L45.1988 8.97977L45.7389 13.3943C45.7897 13.8077 45.5047 14.1316 45.2535 13.9468L42.3962 11.8413L39.5402 13.9468H39.5409Z" fill="#FFC46A"/>
<path d="M51.9374 13.9468C51.6862 14.1316 51.4012 13.8077 51.452 13.3943L51.992 8.97977L49.6996 5.84761C49.4855 5.55455 49.5968 5.01883 49.8837 4.96097L53.0709 4.31139L54.4921 0.272991C54.6203 -0.090997 54.9671 -0.090997 55.0953 0.272991L56.5164 4.31139L59.7036 4.96097C59.9906 5.01883 60.1019 5.55455 59.8871 5.84761L57.5953 8.97977L58.1354 13.3943C58.1862 13.8077 57.9012 14.1316 57.65 13.9468L54.7927 11.8413L51.9367 13.9468H51.9374Z" fill="#FFC46A"/>
</svg>
