<svg width="91" height="20" viewBox="0 0 91 20" fill="none" xmlns="http://www.w3.org/2000/svg">
<path d="M3.91099 19.924C3.53506 20.188 3.10848 19.7253 3.18445 19.1347L3.9928 12.8282L0.561706 8.35372C0.24129 7.93507 0.407828 7.16976 0.837323 7.0871L5.60754 6.15913L7.73456 0.389987C7.92642 -0.129996 8.44552 -0.129996 8.63738 0.389987L10.7644 6.15913L15.5346 7.0871C15.9641 7.16976 16.1306 7.93507 15.8093 8.35372L12.3791 12.8282L13.1875 19.1347C13.2635 19.7253 12.8369 20.188 12.461 19.924L8.18451 16.9161L3.91001 19.924H3.91099Z" fill="#FFC46A"/>
<path d="M22.4657 19.924C22.0897 20.188 21.6632 19.7253 21.7391 19.1347L22.5475 12.8282L19.1164 8.35372C18.796 7.93507 18.9625 7.16976 19.392 7.0871L24.1622 6.15913L26.2892 0.389987C26.4811 -0.129996 27.0002 -0.129996 27.1921 0.389987L29.3191 6.15913L34.0893 7.0871C34.5188 7.16976 34.6853 7.93507 34.3639 8.35372L30.9338 12.8282L31.7422 19.1347C31.8181 19.7253 31.3916 20.188 31.0156 19.924L26.7392 16.9161L22.4647 19.924H22.4657Z" fill="#FFC46A"/>
<path d="M41.0204 19.924C40.6444 20.188 40.2179 19.7253 40.2938 19.1347L41.1022 12.8282L37.6711 8.35372C37.3507 7.93507 37.5172 7.16976 37.9467 7.0871L42.7169 6.15913L44.8439 0.389987C45.0358 -0.129996 45.5549 -0.129996 45.7468 0.389987L47.8738 6.15913L52.644 7.0871C53.0735 7.16976 53.24 7.93507 52.9186 8.35372L49.4885 12.8282L50.2969 19.1347C50.3728 19.7253 49.9463 20.188 49.5703 19.924L45.2939 16.9161L41.0194 19.924H41.0204Z" fill="#FFC46A"/>
<path d="M59.575 19.924C59.1991 20.188 58.7725 19.7253 58.8485 19.1347L59.6569 12.8282L56.2258 8.35372C55.9054 7.93507 56.0719 7.16976 56.5014 7.0871L61.2716 6.15913L63.3986 0.389987C63.5905 -0.129996 64.1096 -0.129996 64.3014 0.389987L66.4285 6.15913L71.1987 7.0871C71.6282 7.16976 71.7947 7.93507 71.4733 8.35372L68.0432 12.8282L68.8516 19.1347C68.9275 19.7253 68.5009 20.188 68.125 19.924L63.8486 16.9161L59.5741 19.924H59.575Z" fill="#FFC46A"/>
<path d="M78.1297 19.924C77.7538 20.188 77.3272 19.7253 77.4032 19.1347L78.2115 12.8282L74.7805 8.35372C74.46 7.93507 74.6266 7.16976 75.0561 7.0871L79.8263 6.15913L81.9533 0.389987C82.1452 -0.129996 82.6643 -0.129996 82.8561 0.389987L84.9831 6.15913L89.7534 7.0871C90.1829 7.16976 90.3494 7.93507 90.028 8.35372L86.5979 12.8282L87.4062 19.1347C87.4822 19.7253 87.0556 20.188 86.6797 19.924L82.4033 16.9161L78.1288 19.924H78.1297Z" fill="#FFC46A"/>
</svg>
