<svg width="107" height="20" viewBox="0 0 107 20" fill="none" xmlns="http://www.w3.org/2000/svg">
<path d="M5.07383 19.924C4.6308 20.188 4.12808 19.7253 4.2176 19.1347L5.17024 12.8282L1.1267 8.35372C0.749092 7.93507 0.945358 7.16976 1.45152 7.0871L7.07322 6.15913L9.57991 0.389987C9.80602 -0.129996 10.4178 -0.129996 10.6439 0.389987L13.1506 6.15913L18.7723 7.0871C19.2784 7.16976 19.4747 7.93507 19.0959 8.35372L15.0535 12.8282L16.0062 19.1347C16.0957 19.7253 15.593 20.188 15.15 19.924L10.1102 16.9161L5.07268 19.924H5.07383Z" fill="#FFC46A"/>
<path d="M26.941 19.924C26.498 20.188 25.9953 19.7253 26.0848 19.1347L27.0374 12.8282L22.9939 8.35372C22.6163 7.93507 22.8125 7.16976 23.3187 7.0871L28.9404 6.15913L31.4471 0.389987C31.6732 -0.129996 32.285 -0.129996 32.5111 0.389987L35.0178 6.15913L40.6395 7.0871C41.1456 7.16976 41.3419 7.93507 40.9631 8.35372L36.9207 12.8282L37.8734 19.1347C37.9629 19.7253 37.4602 20.188 37.0171 19.924L31.9774 16.9161L26.9399 19.924H26.941Z" fill="#FFC46A"/>
<path d="M48.8062 19.924C48.3632 20.188 47.8605 19.7253 47.95 19.1347L48.9027 12.8282L44.8591 8.35372C44.4815 7.93507 44.6778 7.16976 45.1839 7.0871L50.8056 6.15913L53.3123 0.389987C53.5384 -0.129996 54.1502 -0.129996 54.3763 0.389987L56.883 6.15913L62.5047 7.0871C63.0108 7.16976 63.2071 7.93507 62.8284 8.35372L58.786 12.8282L59.7386 19.1347C59.8281 19.7253 59.3254 20.188 58.8824 19.924L53.8426 16.9161L48.8051 19.924H48.8062Z" fill="#FFC46A"/>
<path d="M70.6734 19.924C70.2304 20.188 69.7277 19.7253 69.8172 19.1347L70.7698 12.8282L66.7263 8.35372C66.3487 7.93507 66.545 7.16976 67.0511 7.0871L72.6728 6.15913L75.1795 0.389987C75.4056 -0.129996 76.0174 -0.129996 76.2435 0.389987L78.7502 6.15913L84.3719 7.0871C84.878 7.16976 85.0743 7.93507 84.6955 8.35372L80.6532 12.8282L81.6058 19.1347C81.6953 19.7253 81.1926 20.188 80.7496 19.924L75.7098 16.9161L70.6723 19.924H70.6734Z" fill="#FFC46A"/>
<path d="M92.5406 19.924C92.0976 20.188 91.5949 19.7253 91.6844 19.1347L92.637 12.8282L88.5935 8.35372C88.2159 7.93507 88.4122 7.16976 88.9183 7.0871L94.54 6.15913L97.0467 0.389987C97.2728 -0.129996 97.8846 -0.129996 98.1107 0.389987L100.617 6.15913L106.239 7.0871C106.745 7.16976 106.941 7.93507 106.563 8.35372L102.52 12.8282L103.473 19.1347C103.563 19.7253 103.06 20.188 102.617 19.924L97.577 16.9161L92.5395 19.924H92.5406Z" fill="#FFC46A"/>
</svg>
