<svg width="91" height="20" viewBox="0 0 91 20" fill="none" xmlns="http://www.w3.org/2000/svg">
<path d="M4.11606 19.924C3.74013 20.188 3.31356 19.7253 3.38953 19.1347L4.19787 12.8282L0.766785 8.35372C0.446368 7.93507 0.612907 7.16976 1.0424 7.0871L5.81262 6.15913L7.93964 0.389987C8.1315 -0.129996 8.65059 -0.129996 8.84245 0.389987L10.9695 6.15913L15.7397 7.0871C16.1692 7.16976 16.3357 7.93507 16.0143 8.35372L12.5842 12.8282L13.3926 19.1347C13.4685 19.7253 13.042 20.188 12.666 19.924L8.38959 16.9161L4.11509 19.924H4.11606Z" fill="#FFC46A"/>
<path d="M22.6708 19.924C22.2948 20.188 21.8682 19.7253 21.9442 19.1347L22.7526 12.8282L19.3215 8.35372C19.0011 7.93507 19.1676 7.16976 19.5971 7.0871L24.3673 6.15913L26.4943 0.389987C26.6862 -0.129996 27.2053 -0.129996 27.3971 0.389987L29.5242 6.15913L34.2944 7.0871C34.7239 7.16976 34.8904 7.93507 34.569 8.35372L31.1389 12.8282L31.9473 19.1347C32.0232 19.7253 31.5966 20.188 31.2207 19.924L26.9443 16.9161L22.6698 19.924H22.6708Z" fill="#FFC46A"/>
<path d="M41.2254 19.924C40.8495 20.188 40.4229 19.7253 40.4989 19.1347L41.3072 12.8282L37.8762 8.35372C37.5557 7.93507 37.7223 7.16976 38.1518 7.0871L42.922 6.15913L45.049 0.389987C45.2409 -0.129996 45.76 -0.129996 45.9518 0.389987L48.0789 6.15913L52.8491 7.0871C53.2786 7.16976 53.4451 7.93507 53.1237 8.35372L49.6936 12.8282L50.5019 19.1347C50.5779 19.7253 50.1513 20.188 49.7754 19.924L45.499 16.9161L41.2245 19.924H41.2254Z" fill="#FFC46A"/>
<path d="M59.7801 19.924C59.4042 20.188 58.9776 19.7253 59.0536 19.1347L59.8619 12.8282L56.4308 8.35372C56.1104 7.93507 56.277 7.16976 56.7065 7.0871L61.4767 6.15913L63.6037 0.389987C63.7956 -0.129996 64.3147 -0.129996 64.5065 0.389987L66.6335 6.15913L71.4038 7.0871C71.8333 7.16976 71.9998 7.93507 71.6784 8.35372L68.2483 12.8282L69.0566 19.1347C69.1326 19.7253 68.706 20.188 68.3301 19.924L64.0536 16.9161L59.7792 19.924H59.7801Z" fill="#FFC46A"/>
<path d="M78.3348 19.924C77.9589 20.188 77.5323 19.7253 77.6083 19.1347L78.4166 12.8282L74.9855 8.35372C74.6651 7.93507 74.8317 7.16976 75.2612 7.0871L80.0314 6.15913L82.1584 0.389987C82.3502 -0.129996 82.8693 -0.129996 83.0612 0.389987L85.1882 6.15913L89.9584 7.0871C90.3879 7.16976 90.5545 7.93507 90.2331 8.35372L86.803 12.8282L87.6113 19.1347C87.6873 19.7253 87.2607 20.188 86.8848 19.924L82.6083 16.9161L78.3338 19.924H78.3348Z" fill="#FFC46A"/>
</svg>
