<svg width="107" height="20" viewBox="0 0 107 20" fill="none" xmlns="http://www.w3.org/2000/svg">
<path d="M4.69297 19.924C4.24994 20.188 3.74722 19.7253 3.83674 19.1347L4.78938 12.8282L0.745844 8.35372C0.368233 7.93507 0.564499 7.16976 1.07066 7.0871L6.69236 6.15913L9.19905 0.389987C9.42516 -0.129996 10.0369 -0.129996 10.263 0.389987L12.7697 6.15913L18.3914 7.0871C18.8976 7.16976 19.0938 7.93507 18.7151 8.35372L14.6727 12.8282L15.6253 19.1347C15.7148 19.7253 15.2121 20.188 14.7691 19.924L9.72931 16.9161L4.69182 19.924H4.69297Z" fill="#FFC46A"/>
<path d="M26.5602 19.924C26.1171 20.188 25.6144 19.7253 25.7039 19.1347L26.6566 12.8282L22.613 8.35372C22.2354 7.93507 22.4317 7.16976 22.9378 7.0871L28.5595 6.15913L31.0662 0.389987C31.2923 -0.129996 31.9041 -0.129996 32.1302 0.389987L34.6369 6.15913L40.2586 7.0871C40.7648 7.16976 40.961 7.93507 40.5823 8.35372L36.5399 12.8282L37.4925 19.1347C37.582 19.7253 37.0793 20.188 36.6363 19.924L31.5965 16.9161L26.559 19.924H26.5602Z" fill="#FFC46A"/>
<path d="M48.4254 19.924C47.9824 20.188 47.4796 19.7253 47.5692 19.1347L48.5218 12.8282L44.4783 8.35372C44.1007 7.93507 44.2969 7.16976 44.8031 7.0871L50.4248 6.15913L52.9315 0.389987C53.1576 -0.129996 53.7693 -0.129996 53.9954 0.389987L56.5021 6.15913L62.1238 7.0871C62.63 7.16976 62.8263 7.93507 62.4475 8.35372L58.4051 12.8282L59.3577 19.1347C59.4473 19.7253 58.9446 20.188 58.5015 19.924L53.4617 16.9161L48.4242 19.924H48.4254Z" fill="#FFC46A"/>
<path d="M70.2926 19.924C69.8495 20.188 69.3468 19.7253 69.4364 19.1347L70.389 12.8282L66.3455 8.35372C65.9678 7.93507 66.1641 7.16976 66.6703 7.0871L72.292 6.15913L74.7987 0.389987C75.0248 -0.129996 75.6365 -0.129996 75.8626 0.389987L78.3693 6.15913L83.991 7.0871C84.4972 7.16976 84.6934 7.93507 84.3147 8.35372L80.2723 12.8282L81.2249 19.1347C81.3145 19.7253 80.8117 20.188 80.3687 19.924L75.3289 16.9161L70.2914 19.924H70.2926Z" fill="#FFC46A"/>
<path d="M92.1598 19.924C91.7167 20.188 91.214 19.7253 91.3035 19.1347L92.2562 12.8282L88.2126 8.35372C87.835 7.93507 88.0313 7.16976 88.5375 7.0871L94.1592 6.15913L96.6658 0.389987C96.892 -0.129996 97.5037 -0.129996 97.7298 0.389987L100.237 6.15913L105.858 7.0871C106.364 7.16976 106.561 7.93507 106.182 8.35372L102.139 12.8282L103.092 19.1347C103.182 19.7253 102.679 20.188 102.236 19.924L97.1961 16.9161L92.1586 19.924H92.1598Z" fill="#FFC46A"/>
</svg>
