<svg width="106" height="20" viewBox="0 0 106 20" fill="none" xmlns="http://www.w3.org/2000/svg">
<path d="M4.29258 19.924C3.84955 20.188 3.34683 19.7253 3.43635 19.1347L4.38899 12.8282L0.345453 8.35372C-0.0321576 7.93507 0.164108 7.16976 0.670268 7.0871L6.29197 6.15913L8.79866 0.389987C9.02477 -0.129996 9.63652 -0.129996 9.86263 0.389987L12.3693 6.15913L17.991 7.0871C18.4972 7.16976 18.6934 7.93507 18.3147 8.35372L14.2723 12.8282L15.2249 19.1347C15.3145 19.7253 14.8117 20.188 14.3687 19.924L9.32892 16.9161L4.29143 19.924H4.29258Z" fill="#FFC46A"/>
<path d="M26.1598 19.924C25.7167 20.188 25.214 19.7253 25.3035 19.1347L26.2562 12.8282L22.2126 8.35372C21.835 7.93507 22.0313 7.16976 22.5375 7.0871L28.1592 6.15913L30.6658 0.389987C30.892 -0.129996 31.5037 -0.129996 31.7298 0.389987L34.2365 6.15913L39.8582 7.0871C40.3644 7.16976 40.5606 7.93507 40.1819 8.35372L36.1395 12.8282L37.0921 19.1347C37.1816 19.7253 36.6789 20.188 36.2359 19.924L31.1961 16.9161L26.1586 19.924H26.1598Z" fill="#FFC46A"/>
<path d="M48.025 19.924C47.582 20.188 47.0793 19.7253 47.1688 19.1347L48.1214 12.8282L44.0779 8.35372C43.7003 7.93507 43.8965 7.16976 44.4027 7.0871L50.0244 6.15913L52.5311 0.389987C52.7572 -0.129996 53.3689 -0.129996 53.595 0.389987L56.1017 6.15913L61.7234 7.0871C62.2296 7.16976 62.4259 7.93507 62.0471 8.35372L58.0047 12.8282L58.9574 19.1347C59.0469 19.7253 58.5442 20.188 58.1011 19.924L53.0613 16.9161L48.0239 19.924H48.025Z" fill="#FFC46A"/>
<path d="M69.8922 19.924C69.4492 20.188 68.9464 19.7253 69.036 19.1347L69.9886 12.8282L65.9451 8.35372C65.5675 7.93507 65.7637 7.16976 66.2699 7.0871L71.8916 6.15913L74.3983 0.389987C74.6244 -0.129996 75.2361 -0.129996 75.4622 0.389987L77.9689 6.15913L83.5906 7.0871C84.0968 7.16976 84.2931 7.93507 83.9143 8.35372L79.8719 12.8282L80.8245 19.1347C80.9141 19.7253 80.4113 20.188 79.9683 19.924L74.9285 16.9161L69.891 19.924H69.8922Z" fill="#FFC46A"/>
<path d="M91.7594 19.924C91.3163 20.188 90.8136 19.7253 90.9032 19.1347L91.8558 12.8282L87.8123 8.35372C87.4346 7.93507 87.6309 7.16976 88.1371 7.0871L93.7588 6.15913L96.2655 0.389987C96.4916 -0.129996 97.1033 -0.129996 97.3294 0.389987L99.8361 6.15913L105.458 7.0871C105.964 7.16976 106.16 7.93507 105.781 8.35372L101.739 12.8282L102.692 19.1347C102.781 19.7253 102.279 20.188 101.836 19.924L96.7957 16.9161L91.7582 19.924H91.7594Z" fill="#FFC46A"/>
</svg>
