<svg width="90" height="16" viewBox="0 0 90 16" fill="none" xmlns="http://www.w3.org/2000/svg">
<path d="M3.79093 15.8957C3.41583 16.1063 2.9902 15.7372 3.06599 15.2659L3.87256 10.2346L0.449033 6.66472C0.129323 6.33071 0.295494 5.72014 0.724043 5.65419L5.48375 4.91384L7.60608 0.311137C7.79752 -0.103712 8.31547 -0.103712 8.5069 0.311137L10.6292 4.91384L15.3889 5.65419C15.8175 5.72014 15.9837 6.33071 15.663 6.66472L12.2404 10.2346L13.047 15.2659C13.1228 15.7372 12.6972 16.1063 12.3221 15.8957L8.05503 13.4959L3.78996 15.8957H3.79093Z" fill="#FFC46A"/>
<path d="M22.3046 15.8957C21.9295 16.1063 21.5039 15.7372 21.5797 15.2659L22.3862 10.2346L18.9627 6.66472C18.643 6.33071 18.8092 5.72014 19.2377 5.65419L23.9974 4.91384L26.1198 0.311137C26.3112 -0.103712 26.8291 -0.103712 27.0206 0.311137L29.1429 4.91384L33.9026 5.65419C34.3312 5.72014 34.4973 6.33071 34.1767 6.66472L30.7541 10.2346L31.5607 15.2659C31.6365 15.7372 31.2108 16.1063 30.8357 15.8957L26.5687 13.4959L22.3036 15.8957H22.3046Z" fill="#FFC46A"/>
<path d="M40.8183 15.8957C40.4432 16.1063 40.0175 15.7372 40.0933 15.2659L40.8999 10.2346L37.4764 6.66472C37.1567 6.33071 37.3228 5.72014 37.7514 5.65419L42.5111 4.91384L44.6334 0.311137C44.8249 -0.103712 45.3428 -0.103712 45.5342 0.311137L47.6566 4.91384L52.4163 5.65419C52.8448 5.72014 53.011 6.33071 52.6903 6.66472L49.2678 10.2346L50.0743 15.2659C50.1501 15.7372 49.7245 16.1063 49.3494 15.8957L45.0824 13.4959L40.8173 15.8957H40.8183Z" fill="#FFC46A"/>
<path d="M59.3319 15.8957C58.9568 16.1063 58.5312 15.7372 58.607 15.2659L59.4136 10.2346L55.99 6.66472C55.6703 6.33071 55.8365 5.72014 56.2651 5.65419L61.0248 4.91384L63.1471 0.311137C63.3385 -0.103712 63.8565 -0.103712 64.0479 0.311137L66.1703 4.91384L70.93 5.65419C71.3585 5.72014 71.5247 6.33071 71.204 6.66472L67.7814 10.2346L68.588 15.2659C68.6638 15.7372 68.2382 16.1063 67.8631 15.8957L63.596 13.4959L59.331 15.8957H59.3319Z" fill="#FFC46A"/>
<path d="M77.8456 15.8957C77.4705 16.1063 77.0449 15.7372 77.1207 15.2659L77.9272 10.2346L74.5037 6.66472C74.184 6.33071 74.3502 5.72014 74.7787 5.65419L79.5384 4.91384L81.6608 0.311137C81.8522 -0.103712 82.3702 -0.103712 82.5616 0.311137L84.6839 4.91384L89.4436 5.65419C89.8722 5.72014 90.0383 6.33071 89.7177 6.66472L86.2951 10.2346L87.1017 15.2659C87.1775 15.7372 86.7518 16.1063 86.3767 15.8957L82.1097 13.4959L77.8446 15.8957H77.8456Z" fill="#FFC46A"/>
</svg>
