<svg width="25" height="25" viewBox="0 0 25 25" fill="none" xmlns="http://www.w3.org/2000/svg">
<g clip-path="url(#clip0_648_2226)">
<path fill-rule="evenodd" clip-rule="evenodd" d="M13.0976 16.4033C12.9101 16.5908 12.6558 16.6961 12.3906 16.6961C12.1255 16.6961 11.8712 16.5908 11.6836 16.4033L6.02663 10.7463C5.93112 10.654 5.85493 10.5437 5.80252 10.4217C5.75011 10.2997 5.72253 10.1685 5.72137 10.0357C5.72022 9.90291 5.74552 9.77123 5.7958 9.64834C5.84608 9.52544 5.92034 9.41379 6.01423 9.31989C6.10812 9.226 6.21977 9.15175 6.34267 9.10147C6.46557 9.05119 6.59725 9.02588 6.73003 9.02704C6.86281 9.02819 6.99403 9.05578 7.11603 9.10819C7.23803 9.1606 7.34838 9.23678 7.44063 9.33229L12.3906 14.2823L17.3406 9.33229C17.5292 9.15013 17.7818 9.04934 18.044 9.05161C18.3062 9.05389 18.557 9.15906 18.7424 9.34447C18.9279 9.52988 19.033 9.78069 19.0353 10.0429C19.0376 10.3051 18.9368 10.5577 18.7546 10.7463L13.0976 16.4033Z" fill="#1D3B65"/>
</g>
<defs>
<clipPath id="clip0_648_2226">
<rect width="24" height="24" fill="white" transform="translate(0.392578 0.696289)"/>
</clipPath>
</defs>
</svg>
