<svg width="26" height="24" viewBox="0 0 26 24" fill="none" xmlns="http://www.w3.org/2000/svg">
<path d="M9.24414 12.5L16.6752 12.5" stroke="#5B0B99" stroke-linecap="round"/>
<path d="M9.24414 15.5L13.4904 15.5" stroke="#5B0B99" stroke-linecap="round"/>
<path d="M6.05859 5.9C6.05859 5.05992 6.05859 4.63988 6.22208 4.31901C6.36589 4.03677 6.59536 3.8073 6.87761 3.66349C7.19848 3.5 7.61852 3.5 8.45859 3.5H13.5988C13.9507 3.5 14.1267 3.5 14.293 3.53837C14.4405 3.57239 14.5821 3.62855 14.7128 3.70494C14.8602 3.79108 14.9883 3.91173 15.2444 4.15304L19.1047 7.78939C19.3827 8.05131 19.5218 8.18228 19.6213 8.33742C19.7096 8.47493 19.7748 8.62595 19.8144 8.7845C19.859 8.96337 19.859 9.15436 19.859 9.53635V18.1C19.859 18.9401 19.859 19.3601 19.6956 19.681C19.5517 19.9632 19.3223 20.1927 19.04 20.3365C18.7192 20.5 18.2991 20.5 17.459 20.5H8.45859C7.61852 20.5 7.19848 20.5 6.87761 20.3365C6.59536 20.1927 6.36589 19.9632 6.22208 19.681C6.05859 19.3601 6.05859 18.9401 6.05859 18.1V5.9Z" stroke="#5B0B99"/>
<path d="M13.4902 3.5V7.1C13.4902 7.94008 13.4902 8.36012 13.6537 8.68099C13.7975 8.96323 14.027 9.1927 14.3092 9.33651C14.6301 9.5 15.0502 9.5 15.8902 9.5H19.8597" stroke="#5B0B99"/>
</svg>
