<svg width="22" height="24" viewBox="0 0 22 24" fill="none" xmlns="http://www.w3.org/2000/svg">
<path d="M7.93359 12.5L14.2391 12.5" stroke="#5B0B99" stroke-linecap="round"/>
<path d="M7.93359 15.5L11.5367 15.5" stroke="#5B0B99" stroke-linecap="round"/>
<path d="M5.23242 5.9C5.23242 5.05992 5.23242 4.63988 5.39591 4.31901C5.53972 4.03677 5.76919 3.8073 6.05144 3.66349C6.3723 3.5 6.79234 3.5 7.63242 3.5H11.3704C11.7638 3.5 11.9605 3.5 12.144 3.5471C12.3066 3.58885 12.4611 3.6576 12.6009 3.7505C12.7588 3.85531 12.8904 4.00144 13.1537 4.29371L16.3258 7.81527C16.5539 8.06851 16.668 8.19513 16.7493 8.33943C16.8215 8.46741 16.8744 8.6053 16.9065 8.74867C16.9426 8.91033 16.9426 9.08074 16.9426 9.42156V18.1C16.9426 18.9401 16.9426 19.3601 16.7791 19.681C16.6353 19.9632 16.4058 20.1927 16.1236 20.3365C15.8027 20.5 15.3827 20.5 14.5426 20.5H7.63242C6.79234 20.5 6.3723 20.5 6.05144 20.3365C5.76919 20.1927 5.53972 19.9632 5.39591 19.681C5.23242 19.3601 5.23242 18.9401 5.23242 18.1V5.9Z" stroke="#5B0B99"/>
<path d="M11.5371 3.5V7.1C11.5371 7.94008 11.5371 8.36012 11.7006 8.68099C11.8444 8.96323 12.0739 9.1927 12.3561 9.33651C12.677 9.5 13.097 9.5 13.9371 9.5H16.9418" stroke="#5B0B99"/>
</svg>
