<svg width="25" height="24" viewBox="0 0 25 24" fill="none" xmlns="http://www.w3.org/2000/svg">
<path d="M9.09766 12.5L16.2429 12.5" stroke="#5B0B99" stroke-linecap="round"/>
<path d="M9.09766 15.5L13.1806 15.5" stroke="#5B0B99" stroke-linecap="round"/>
<path d="M6.03516 5.9C6.03516 5.05992 6.03516 4.63988 6.19865 4.31901C6.34246 4.03677 6.57193 3.8073 6.85417 3.66349C7.17504 3.5 7.59508 3.5 8.43516 3.5H13.2214C13.5831 3.5 13.764 3.5 13.9345 3.54037C14.0856 3.57617 14.2303 3.63523 14.3633 3.71544C14.5134 3.8059 14.6425 3.93247 14.9009 4.18561L18.5844 7.79419C18.8501 8.05456 18.983 8.18475 19.0781 8.33744C19.1624 8.47281 19.2246 8.62075 19.2623 8.7757C19.3048 8.95048 19.3048 9.13651 19.3048 9.50857V18.1C19.3048 18.9401 19.3048 19.3601 19.1413 19.681C18.9975 19.9632 18.7681 20.1927 18.4858 20.3365C18.1649 20.5 17.7449 20.5 16.9048 20.5H8.43516C7.59508 20.5 7.17504 20.5 6.85417 20.3365C6.57193 20.1927 6.34246 19.9632 6.19865 19.681C6.03516 19.3601 6.03516 18.9401 6.03516 18.1V5.9Z" stroke="#5B0B99"/>
<path d="M13.1816 3.5V7.1C13.1816 7.94008 13.1816 8.36012 13.3451 8.68099C13.4889 8.96323 13.7184 9.1927 14.0007 9.33651C14.3215 9.5 14.7416 9.5 15.5816 9.5H19.3061" stroke="#5B0B99"/>
</svg>
