<svg width="20" height="17" viewBox="0 0 20 17" fill="none" xmlns="http://www.w3.org/2000/svg">
<path d="M7.01367 8.8291L12.7892 8.8291" stroke="#5B0B99" stroke-linecap="round"/>
<path d="M7.01367 10.9482L10.314 10.9482" stroke="#5B0B99" stroke-linecap="round"/>
<path d="M4.53711 4.87266C4.53711 4.03258 4.53711 3.61254 4.7006 3.29167C4.84441 3.00943 5.07388 2.77996 5.35612 2.63615C5.67699 2.47266 6.09703 2.47266 6.93711 2.47266H10.2508C10.5791 2.47266 10.7433 2.47266 10.8996 2.50637C11.0383 2.53627 11.172 2.58569 11.2968 2.65314C11.4374 2.72919 11.5621 2.83596 11.8116 3.0495L14.424 5.28597C14.7326 5.55021 14.887 5.68233 14.9978 5.84302C15.0961 5.9854 15.1689 6.1437 15.2132 6.31093C15.2632 6.49964 15.2632 6.7028 15.2632 7.10912V12.0806C15.2632 12.9207 15.2632 13.3407 15.0997 13.6616C14.9559 13.9438 14.7264 14.1733 14.4442 14.3171C14.1233 14.4806 13.7033 14.4806 12.8632 14.4806H6.93711C6.09703 14.4806 5.67699 14.4806 5.35612 14.3171C5.07388 14.1733 4.84441 13.9438 4.7006 13.6616C4.53711 13.3407 4.53711 12.9207 4.53711 12.0806V4.87266Z" stroke="#5B0B99"/>
<path d="M10.3145 2.47266V4.31075C10.3145 5.15083 10.3145 5.57087 10.4779 5.89174C10.6218 6.17398 10.8512 6.40345 11.1335 6.54726C11.4543 6.71075 11.8744 6.71075 12.7145 6.71075H15.2649" stroke="#5B0B99"/>
</svg>
