<svg width="27" height="24" viewBox="0 0 27 24" fill="none" xmlns="http://www.w3.org/2000/svg">
<path d="M9.86523 12.5L17.2962 12.5" stroke="#5B0B99" stroke-linecap="round"/>
<path d="M9.86523 15.5L14.1115 15.5" stroke="#5B0B99" stroke-linecap="round"/>
<path d="M6.67969 5.9C6.67969 5.05992 6.67969 4.63988 6.84318 4.31901C6.98699 4.03677 7.21646 3.8073 7.4987 3.66349C7.81957 3.5 8.23961 3.5 9.07969 3.5H14.2199C14.5718 3.5 14.7478 3.5 14.9141 3.53837C15.0616 3.57239 15.2032 3.62855 15.3339 3.70494C15.4813 3.79108 15.6094 3.91173 15.8655 4.15304L19.7258 7.78939C20.0038 8.05131 20.1429 8.18228 20.2424 8.33742C20.3307 8.47493 20.3959 8.62595 20.4355 8.7845C20.4801 8.96337 20.4801 9.15436 20.4801 9.53635V18.1C20.4801 18.9401 20.4801 19.3601 20.3166 19.681C20.1728 19.9632 19.9434 20.1927 19.6611 20.3365C19.3403 20.5 18.9202 20.5 18.0801 20.5H9.07969C8.23961 20.5 7.81957 20.5 7.4987 20.3365C7.21646 20.1927 6.98699 19.9632 6.84318 19.681C6.67969 19.3601 6.67969 18.9401 6.67969 18.1V5.9Z" stroke="#5B0B99"/>
<path d="M14.1113 3.5V7.1C14.1113 7.94008 14.1113 8.36012 14.2748 8.68099C14.4186 8.96323 14.6481 9.1927 14.9303 9.33651C15.2512 9.5 15.6712 9.5 16.5113 9.5H20.4808" stroke="#5B0B99"/>
</svg>
