<svg width="22" height="24" viewBox="0 0 22 24" fill="none" xmlns="http://www.w3.org/2000/svg">
<path d="M7.60547 12.5L13.6684 12.5" stroke="#5B0B99" stroke-linecap="round"/>
<path d="M7.60547 15.5L11.07 15.5" stroke="#5B0B99" stroke-linecap="round"/>
<path d="M5.00781 5.9C5.00781 5.05992 5.00781 4.63988 5.1713 4.31901C5.31511 4.03677 5.54458 3.8073 5.82683 3.66349C6.14769 3.5 6.56773 3.5 7.40781 3.5H10.8406C11.2439 3.5 11.4456 3.5 11.6331 3.5493C11.7993 3.59299 11.9567 3.66491 12.0985 3.76192C12.2586 3.87138 12.3906 4.02383 12.6547 4.32871L15.6817 7.82358C15.8986 8.07393 16.007 8.1991 16.0842 8.34061C16.1527 8.46613 16.203 8.6008 16.2333 8.74054C16.2676 8.89807 16.2676 9.06367 16.2676 9.39487V18.1C16.2676 18.9401 16.2676 19.3601 16.1041 19.681C15.9603 19.9632 15.7308 20.1927 15.4486 20.3365C15.1277 20.5 14.7077 20.5 13.8676 20.5H7.40781C6.56773 20.5 6.14769 20.5 5.82683 20.3365C5.54458 20.1927 5.31511 19.9632 5.1713 19.681C5.00781 19.3601 5.00781 18.9401 5.00781 18.1V5.9Z" stroke="#5B0B99"/>
<path d="M11.0703 3.5V7.1C11.0703 7.94008 11.0703 8.36012 11.2338 8.68099C11.3776 8.96323 11.6071 9.1927 11.8893 9.33651C12.2102 9.5 12.6302 9.5 13.4703 9.5H16.2671" stroke="#5B0B99"/>
</svg>
