<svg width="22" height="24" viewBox="0 0 22 24" fill="none" xmlns="http://www.w3.org/2000/svg">
<path d="M7.72656 12.5L14.032 12.5" stroke="#5B0B99" stroke-linecap="round"/>
<path d="M7.72656 15.5L11.3297 15.5" stroke="#5B0B99" stroke-linecap="round"/>
<path d="M5.02539 5.9C5.02539 5.05992 5.02539 4.63988 5.18888 4.31901C5.33269 4.03677 5.56216 3.8073 5.8444 3.66349C6.16527 3.5 6.58531 3.5 7.42539 3.5H11.1634C11.5568 3.5 11.7535 3.5 11.937 3.5471C12.0996 3.58885 12.254 3.6576 12.3939 3.7505C12.5517 3.85531 12.6834 4.00144 12.9466 4.29371L16.1188 7.81527C16.3469 8.06851 16.461 8.19513 16.5423 8.33943C16.6144 8.46741 16.6674 8.6053 16.6994 8.74867C16.7356 8.91033 16.7356 9.08074 16.7356 9.42156V18.1C16.7356 18.9401 16.7356 19.3601 16.5721 19.681C16.4283 19.9632 16.1988 20.1927 15.9166 20.3365C15.5957 20.5 15.1757 20.5 14.3356 20.5H7.42539C6.58531 20.5 6.16527 20.5 5.8444 20.3365C5.56216 20.1927 5.33269 19.9632 5.18888 19.681C5.02539 19.3601 5.02539 18.9401 5.02539 18.1V5.9Z" stroke="#5B0B99"/>
<path d="M11.3301 3.5V7.1C11.3301 7.94008 11.3301 8.36012 11.4936 8.68099C11.6374 8.96323 11.8668 9.1927 12.1491 9.33651C12.47 9.5 12.89 9.5 13.7301 9.5H16.7348" stroke="#5B0B99"/>
</svg>
