<svg width="70" height="70" viewBox="0 0 70 70" fill="none" xmlns="http://www.w3.org/2000/svg">
<circle cx="35" cy="35" r="35" fill="#25BEC8"/>
<path d="M33 18.334C32.1159 18.334 31.2681 18.6852 30.643 19.3103C30.0179 19.9354 29.6667 20.7833 29.6667 21.6673V30.0007H21.3333C20.4493 30.0007 19.6014 30.3518 18.9763 30.977C18.3512 31.6021 18 32.4499 18 33.334V36.6673C18 38.5007 19.5 40.0007 21.3333 40.0007H29.6667V48.334C29.6667 50.1673 31.1667 51.6673 33 51.6673H36.3333C37.2174 51.6673 38.0652 51.3161 38.6904 50.691C39.3155 50.0659 39.6667 49.218 39.6667 48.334V40.0007H48C48.8841 40.0007 49.7319 39.6495 50.357 39.0243C50.9821 38.3992 51.3333 37.5514 51.3333 36.6673V33.334C51.3333 32.4499 50.9821 31.6021 50.357 30.977C49.7319 30.3518 48.8841 30.0007 48 30.0007H39.6667V21.6673C39.6667 20.7833 39.3155 19.9354 38.6904 19.3103C38.0652 18.6852 37.2174 18.334 36.3333 18.334H33Z" stroke="#1D3B65" stroke-width="2" stroke-linecap="round" stroke-linejoin="round"/>
</svg>
