<svg width="53" height="40" viewBox="0 0 53 40" fill="none" xmlns="http://www.w3.org/2000/svg">
<rect width="52.7495" height="40" rx="4" transform="matrix(-1 0 0 1 52.752 0)" fill="#25BEC8"/>
<path d="M23.0336 31.9422H31.6797C33.5819 31.9422 35.167 31.7935 36.5071 31.4731C36.9971 31.3587 37.3141 30.9811 37.2853 30.5807C36.925 27.1596 32.5587 24.4707 27.3567 24.4707C22.1546 24.4707 17.8027 27.1482 17.428 30.5807C17.3848 30.9926 17.7018 31.3587 18.2062 31.4731C19.5463 31.7935 21.1315 31.9422 23.0336 31.9422ZM34.9652 30.0086C34.0142 30.1573 32.9334 30.226 31.6797 30.226H23.0336C21.7799 30.226 20.6992 30.1573 19.7481 30.0086C20.5118 27.8118 23.6677 26.187 27.3567 26.187C31.0457 26.187 34.2015 27.8118 34.9652 30.0086Z" fill="white"/>
<path d="M23.0343 8.20117H31.6804C38.8855 8.20117 41.7676 10.4895 41.7676 16.2103V23.0753C41.7676 27.4003 40.1248 29.7687 36.2052 30.6497C35.8882 27.6749 32.0407 25.3293 27.3573 25.3293C22.674 25.3293 18.8265 27.6749 18.5095 30.6497C14.5899 29.7687 12.9471 27.4003 12.9471 23.0753V16.2103C12.9471 10.4895 15.8292 8.20117 23.0343 8.20117ZM27.3573 22.1257C30.2106 22.1257 32.5162 20.2836 32.5162 18.0181C32.5162 15.7527 30.2106 13.922 27.3573 13.922C24.5041 13.922 22.1985 15.7527 22.1985 18.0181C22.1985 20.2836 24.5041 22.1257 27.3573 22.1257Z" stroke="white" stroke-width="1.5" stroke-linecap="round" stroke-linejoin="round"/>
<path d="M27.3581 22.9844C30.8021 22.9844 33.5977 20.7532 33.5977 18.0187C33.5977 15.2842 30.8021 13.0645 27.3581 13.0645C23.914 13.0645 21.1184 15.2842 21.1184 18.0187C21.1184 20.7532 23.914 22.9844 27.3581 22.9844ZM27.3581 14.7807C29.6061 14.7807 31.4361 16.2338 31.4361 18.0187C31.4361 19.815 29.6061 21.2681 27.3581 21.2681C25.1101 21.2681 23.28 19.815 23.28 18.0187C23.28 16.2338 25.1101 14.7807 27.3581 14.7807Z" fill="white"/>
</svg>
