<svg width="36" height="35" viewBox="0 0 36 35" fill="none" xmlns="http://www.w3.org/2000/svg">
<g clip-path="url(#clip0_660_2585)">
<path d="M26.8552 17.5012L13.6984 25.8808V9.12161L26.8552 17.5012ZM18.084 0.745117C8.40863 0.745117 0.544922 8.25778 0.544922 17.5012C0.544922 26.7447 8.40863 34.2574 18.084 34.2574C27.7594 34.2574 35.6231 26.7447 35.6231 17.5012C35.6231 8.25778 27.7594 0.745117 18.084 0.745117ZM18.084 2.83379C26.5744 2.83379 33.4369 9.38997 33.4369 17.5012C33.4369 25.6125 26.5744 32.1687 18.084 32.1687C9.59371 32.1687 2.73119 25.6125 2.73119 17.5012C2.73119 9.38997 9.59371 2.83379 18.084 2.83379Z" fill="#1D3B65"/>
</g>
<defs>
<clipPath id="clip0_660_2585">
<rect width="35.0847" height="33.5185" fill="white" transform="translate(0.541016 0.742188)"/>
</clipPath>
</defs>
</svg>
