<svg width="12" height="13" viewBox="0 0 12 13" fill="none" xmlns="http://www.w3.org/2000/svg">
<path d="M10.7917 5.875H6.625V1.70833C6.625 1.59323 6.53177 1.5 6.41667 1.5H5.58333C5.46823 1.5 5.375 1.59323 5.375 1.70833V5.875H1.20833C1.09323 5.875 1 5.96823 1 6.08333V6.91667C1 7.03177 1.09323 7.125 1.20833 7.125H5.375V11.2917C5.375 11.4068 5.46823 11.5 5.58333 11.5H6.41667C6.53177 11.5 6.625 11.4068 6.625 11.2917V7.125H10.7917C10.9068 7.125 11 7.03177 11 6.91667V6.08333C11 5.96823 10.9068 5.875 10.7917 5.875Z" fill="#EBC500"/>
</svg>
