<svg width="21" height="21" viewBox="0 0 21 21" fill="none" xmlns="http://www.w3.org/2000/svg">
<path d="M20.0531 2.13259L20.0202 2.11141L15.8604 0L11.3707 6.16762L13.4363 9.00538C13.3745 10.0756 12.934 11.0853 12.1982 11.8433C11.4624 12.6014 10.4824 13.0552 9.44367 13.1189L6.68938 10.9907L0.703125 15.6164L2.73541 19.8662L2.75251 19.9021L2.77311 19.936C2.88157 20.116 3.03294 20.2645 3.21283 20.3672C3.39271 20.4699 3.59512 20.5235 3.80078 20.5228H4.87414C6.94226 20.5228 8.99013 20.1031 10.9008 19.2877C12.8115 18.4723 14.5476 17.2771 16.01 15.7705C17.4724 14.2638 18.6324 12.4751 19.4238 10.5065C20.2153 8.53796 20.6226 6.42806 20.6226 4.2973V3.19138C20.6233 2.97949 20.5713 2.77096 20.4716 2.58562C20.3719 2.40029 20.2278 2.24433 20.0531 2.13259ZM19.0854 4.2973C19.0854 12.3708 12.7102 18.9391 4.87414 18.9391H4.00562L2.64586 16.0951L6.68967 12.9703L8.94105 14.71H9.19724C10.7307 14.7082 12.2008 14.0798 13.2851 12.9627C14.3693 11.8455 14.9792 10.3309 14.981 8.75104V8.4871L13.2925 6.16758L16.325 2.00153L19.0854 3.40272V4.2973Z" fill="#25BEC8"/>
</svg>
