<svg width="41" height="29" viewBox="0 0 41 29" fill="none" xmlns="http://www.w3.org/2000/svg">
<path d="M2.39984 16.9848C1.53126 15.8283 1.09696 15.2501 1.09696 14.5827C1.09696 13.9153 1.53126 13.337 2.39984 12.1805L5.38209 8.20976L9.25789 3.41582C9.83933 2.69665 10.13 2.33706 10.5321 2.14219C10.9341 1.94731 11.3965 1.94185 12.3212 1.93093L20.2852 1.83685L28.2491 1.93093C29.1739 1.94185 29.6362 1.94731 30.0383 2.14218C30.4403 2.33706 30.731 2.69664 31.3124 3.41582L35.1883 8.20976L38.1705 12.1805C39.0391 13.337 39.4734 13.9153 39.4734 14.5827C39.4734 15.2501 39.0391 15.8283 38.1705 16.9848L35.1883 20.9556L31.3124 25.7495C30.731 26.4687 30.4403 26.8283 30.0383 27.0232C29.6362 27.218 29.1739 27.2235 28.2491 27.2344L20.2852 27.3285L12.3212 27.2344C11.3965 27.2235 10.9341 27.2181 10.5321 27.0232C10.13 26.8283 9.83933 26.4687 9.2579 25.7495L5.38209 20.9556L2.39984 16.9848Z" stroke="#1D3B65" stroke-width="2"/>
</svg>
