<svg width="57" height="63" viewBox="0 0 57 63" fill="none" xmlns="http://www.w3.org/2000/svg">
<g clip-path="url(#clip0_592_1896)">
<path d="M42.5876 31.5004L21.4533 46.792V16.2088L42.5876 31.5004ZM28.498 0.922852C12.956 0.922852 0.324219 14.6324 0.324219 31.5005C0.324219 48.3685 12.956 62.0781 28.498 62.0781C44.04 62.0781 56.6719 48.3685 56.6719 31.5005C56.6719 14.6324 44.04 0.922852 28.498 0.922852ZM28.498 4.73439C42.1364 4.73439 53.16 16.6985 53.16 31.5005C53.16 46.3024 42.1364 58.2665 28.498 58.2665C14.8597 58.2665 3.83612 46.3024 3.83612 31.5005C3.83612 16.6985 14.8597 4.73439 28.498 4.73439Z" fill="#1D3B65"/>
</g>
<defs>
<clipPath id="clip0_592_1896">
<rect width="56.3581" height="61.1667" fill="white" transform="translate(0.318359 0.91748)"/>
</clipPath>
</defs>
</svg>
