<svg width="195" height="70" viewBox="0 0 195 70" fill="none" xmlns="http://www.w3.org/2000/svg">
<g filter="url(#filter0_d_592_1872)">
<path d="M3 13C3 7.47715 7.47715 3 13 3H179.182C184.705 3 189.182 7.47715 189.182 13V55C189.182 60.5228 184.705 65 179.182 65H13C7.47717 65 3 60.5228 3 55V13Z" fill="#25BEC8"/>
<path d="M3.5 13C3.5 7.7533 7.7533 3.5 13 3.5H179.182C184.429 3.5 188.682 7.7533 188.682 13V55C188.682 60.2467 184.429 64.5 179.182 64.5H13C7.75331 64.5 3.5 60.2467 3.5 55V13Z" stroke="#A0A0A0"/>
</g>
<defs>
<filter id="filter0_d_592_1872" x="0" y="0" width="194.182" height="70" filterUnits="userSpaceOnUse" color-interpolation-filters="sRGB">
<feFlood flood-opacity="0" result="BackgroundImageFix"/>
<feColorMatrix in="SourceAlpha" type="matrix" values="0 0 0 0 0 0 0 0 0 0 0 0 0 0 0 0 0 0 127 0" result="hardAlpha"/>
<feOffset dx="1" dy="1"/>
<feGaussianBlur stdDeviation="2"/>
<feComposite in2="hardAlpha" operator="out"/>
<feColorMatrix type="matrix" values="0 0 0 0 0 0 0 0 0 0 0 0 0 0 0 0 0 0 0.25 0"/>
<feBlend mode="normal" in2="BackgroundImageFix" result="effect1_dropShadow_592_1872"/>
<feBlend mode="normal" in="SourceGraphic" in2="effect1_dropShadow_592_1872" result="shape"/>
</filter>
</defs>
</svg>
