<svg width="114" height="38" viewBox="0 0 114 38" fill="none" xmlns="http://www.w3.org/2000/svg">
<g filter="url(#filter0_d_660_2533)">
<path d="M3 13.8452C3 8.32236 7.47715 3.84521 13 3.84521H99C104.523 3.84521 109 8.32237 109 13.8452V22.9704C109 28.4932 104.523 32.9704 99 32.9704H13C7.47715 32.9704 3 28.4932 3 22.9704V13.8452Z" fill="#25BEC8"/>
<path d="M3.5 13.8452C3.5 8.5985 7.75329 4.34521 13 4.34521H99C104.247 4.34521 108.5 8.59851 108.5 13.8452V22.9704C108.5 28.2171 104.247 32.4704 99 32.4704H13C7.75329 32.4704 3.5 28.2171 3.5 22.9704V13.8452Z" stroke="#A0A0A0"/>
</g>
<defs>
<filter id="filter0_d_660_2533" x="0" y="0.845215" width="114" height="37.125" filterUnits="userSpaceOnUse" color-interpolation-filters="sRGB">
<feFlood flood-opacity="0" result="BackgroundImageFix"/>
<feColorMatrix in="SourceAlpha" type="matrix" values="0 0 0 0 0 0 0 0 0 0 0 0 0 0 0 0 0 0 127 0" result="hardAlpha"/>
<feOffset dx="1" dy="1"/>
<feGaussianBlur stdDeviation="2"/>
<feComposite in2="hardAlpha" operator="out"/>
<feColorMatrix type="matrix" values="0 0 0 0 0 0 0 0 0 0 0 0 0 0 0 0 0 0 0.25 0"/>
<feBlend mode="normal" in2="BackgroundImageFix" result="effect1_dropShadow_660_2533"/>
<feBlend mode="normal" in="SourceGraphic" in2="effect1_dropShadow_660_2533" result="shape"/>
</filter>
</defs>
</svg>
