<svg width="51" height="32" viewBox="0 0 51 32" fill="none" xmlns="http://www.w3.org/2000/svg">
<g clip-path="url(#clip0_664_3296)">
<path d="M25.1713 31.2627C18.1427 31.2627 12.1907 29.746 7.31359 26.7125C2.43888 23.6976 -0.000831604 20.0042 -0.000831604 15.6313C-0.000831604 11.2574 2.39334 7.59234 7.1801 4.63361C12.2346 1.54445 18.233 -0.000127792 25.1713 -0.000127792C31.9628 -0.000127792 37.8551 1.53517 42.85 4.60577C47.7851 7.67587 50.2539 11.3502 50.2539 15.6308C50.2539 19.8918 47.7851 23.5857 42.85 26.712C37.9745 29.746 32.0813 31.2627 25.1713 31.2627ZM25.0818 28.4432C30.7951 28.4432 35.6259 27.1868 39.5748 24.6745C43.6737 22.0875 45.7223 19.0731 45.7223 15.6313C45.7223 12.1509 43.6886 9.15548 39.6211 6.64322C35.5528 4.11191 30.7072 2.84723 25.0833 2.84723C19.4902 2.84723 14.6131 4.12168 10.4553 6.67107C6.50637 9.0529 4.5323 12.0395 4.5323 15.6313C4.5323 19.2036 6.53699 22.2185 10.544 24.6745C14.5228 27.1878 19.3692 28.4432 25.0818 28.4432ZM36.2996 17.8368C35.8214 19.7536 34.5807 21.2376 32.576 22.2888C30.5721 23.34 28.1348 23.8656 25.2624 23.8656C21.315 23.8656 18.1725 23.0743 15.8396 21.4936C13.5067 19.9118 12.3398 17.8832 12.3398 15.4085C12.3398 13.0076 13.5515 11.0122 15.9731 9.42171C18.3979 7.83121 21.5373 7.03498 25.3974 7.03498C28.2392 7.03498 30.6922 7.56499 32.7558 8.62597C34.8202 9.68695 36.0609 11.1939 36.4802 13.1478H30.152C30.0028 11.2496 28.163 10.3005 24.6326 10.3005C22.869 10.3005 21.4469 10.7753 20.3704 11.7239C19.2923 12.6726 18.7536 13.9387 18.7536 15.5199C18.7536 17.1764 19.2475 18.4366 20.2338 19.3022C21.2216 20.1673 22.6413 20.6001 24.4976 20.6001C27.8489 20.6001 29.7327 19.6793 30.1512 17.8373H28.3114L33.2914 14.7388L38.2721 17.8373L36.2996 17.8368Z" fill="white"/>
</g>
<defs>
<clipPath id="clip0_664_3296">
<rect width="50.2547" height="31.2628" fill="white" transform="matrix(-1 0 0 -1 50.2539 31.2627)"/>
</clipPath>
</defs>
</svg>
