<svg width="21" height="18" viewBox="0 0 21 18" fill="none" xmlns="http://www.w3.org/2000/svg">
<g clip-path="url(#clip0_648_2143)">
<path d="M10.4696 18C7.54611 18 5.07044 17.1267 3.04189 15.3802C1.01431 13.6443 -0.000450134 11.5177 -0.000450134 9C-0.000450134 6.48169 0.995373 4.37147 2.98636 2.66794C5.08873 0.889313 7.58367 0 10.4696 0C13.2944 0 15.7452 0.883968 17.8228 2.65191C19.8755 4.41956 20.9023 6.53513 20.9023 8.99972C20.9023 11.4531 19.8755 13.5799 17.8228 15.3799C15.7949 17.1267 13.3437 18 10.4696 18ZM10.4323 16.3766C12.8087 16.3766 14.818 15.6532 16.4605 14.2068C18.1654 12.7173 19.0175 10.9817 19.0175 9C19.0175 6.99609 18.1716 5.27147 16.4798 3.825C14.7876 2.36756 12.7721 1.63941 10.433 1.63941C8.10657 1.63941 6.07802 2.37319 4.34864 3.84103C2.70613 5.21241 1.88505 6.93197 1.88505 9C1.88505 11.0568 2.71887 12.7927 4.38554 14.2068C6.04046 15.6538 8.05627 16.3766 10.4323 16.3766ZM15.0982 10.2698C14.8993 11.3735 14.3833 12.2279 13.5495 12.8332C12.716 13.4384 11.7022 13.741 10.5075 13.741C8.8656 13.741 7.55852 13.2854 6.58818 12.3753C5.61783 11.4646 5.13249 10.2966 5.13249 8.87175C5.13249 7.48941 5.63645 6.3405 6.6437 5.42475C7.65226 4.509 8.95803 4.05056 10.5636 4.05056C11.7456 4.05056 12.7659 4.35572 13.6243 4.96659C14.4829 5.57747 14.9989 6.44513 15.1733 7.57013L12.5412 7.57013C12.4792 6.47719 11.7139 5.93072 10.2455 5.93072C9.51195 5.93072 8.92047 6.20409 8.47269 6.75028C8.02426 7.29647 7.80021 8.02547 7.80021 8.93587C7.80021 9.88959 8.00565 10.6152 8.41586 11.1136C8.82673 11.6117 9.41724 11.8609 10.1893 11.8609C11.5833 11.8609 12.3668 11.3307 12.5409 10.2701H11.7757L13.847 8.48616L15.9187 10.2701L15.0982 10.2698Z" fill="white"/>
</g>
<defs>
<clipPath id="clip0_648_2143">
<rect width="20.9028" height="18" fill="white" transform="matrix(-1 0 0 -1 20.9023 18)"/>
</clipPath>
</defs>
</svg>
