<svg width="21" height="18" viewBox="0 0 21 18" fill="none" xmlns="http://www.w3.org/2000/svg">
<g clip-path="url(#clip0_280_1372)">
<path d="M10.5243 18C7.6008 18 5.12512 17.1267 3.09657 15.3802C1.069 13.6443 0.0542374 11.5177 0.0542374 9C0.0542374 6.48169 1.05006 4.37147 3.04105 2.66794C5.14341 0.889313 7.63836 0 10.5243 0C13.3491 0 15.7999 0.883968 17.8775 2.65191C19.9302 4.41956 20.957 6.53513 20.957 8.99972C20.957 11.4531 19.9302 13.5799 17.8775 15.3799C15.8496 17.1267 13.3984 18 10.5243 18ZM10.487 16.3766C12.8634 16.3766 14.8727 15.6532 16.5152 14.2068C18.2201 12.7173 19.0722 10.9817 19.0722 9C19.0722 6.99609 18.2263 5.27147 16.5345 3.825C14.8423 2.36756 12.8268 1.63941 10.4877 1.63941C8.16125 1.63941 6.1327 2.37319 4.40333 3.84103C2.76082 5.21241 1.93973 6.93197 1.93973 9C1.93973 11.0568 2.77356 12.7927 4.44023 14.2068C6.09515 15.6538 8.11096 16.3766 10.487 16.3766ZM15.1529 10.2698C14.954 11.3735 14.438 12.2279 13.6041 12.8332C12.7706 13.4384 11.7569 13.741 10.5621 13.741C8.92029 13.741 7.61321 13.2854 6.64286 12.3753C5.67252 11.4646 5.18718 10.2966 5.18718 8.87175C5.18718 7.48941 5.69113 6.3405 6.69839 5.42475C7.70695 4.509 9.01272 4.05056 10.6183 4.05056C11.8003 4.05056 12.8206 4.35572 13.6789 4.96659C14.5376 5.57747 15.0536 6.44513 15.228 7.57013L12.5959 7.57013C12.5339 6.47719 11.7686 5.93072 10.3002 5.93072C9.56664 5.93072 8.97516 6.20409 8.52738 6.75028C8.07895 7.29647 7.8549 8.02547 7.8549 8.93587C7.8549 9.88959 8.06033 10.6152 8.47055 11.1136C8.88142 11.6117 9.47193 11.8609 10.244 11.8609C11.638 11.8609 12.4215 11.3307 12.5956 10.2701H11.8303L13.9017 8.48616L15.9733 10.2701L15.1529 10.2698Z" fill="white"/>
</g>
<defs>
<clipPath id="clip0_280_1372">
<rect width="20.9028" height="18" fill="white" transform="matrix(-1 0 0 -1 20.957 18)"/>
</clipPath>
</defs>
</svg>
