<svg width="34" height="26" viewBox="0 0 34 26" fill="none" xmlns="http://www.w3.org/2000/svg">
<g clip-path="url(#clip0_664_3303)">
<path d="M31.1225 0H2.4814C1.10941 0 0 0.83135 0 1.8592V23.9328C0 24.9606 1.10941 25.797 2.4814 25.797H31.1225C32.4945 25.797 33.6105 24.9606 33.6105 23.9378V1.8592C33.6105 0.83135 32.4945 0 31.1225 0ZM9.97154 21.9829H4.98249V9.66885H9.97154V21.9829ZM7.47701 7.99103C5.87526 7.99103 4.58205 6.99845 4.58205 5.7741C4.58205 4.54975 5.87526 3.55717 7.47701 3.55717C9.0722 3.55717 10.3654 4.54975 10.3654 5.7741C10.3654 6.99341 9.0722 7.99103 7.47701 7.99103ZM28.6411 21.9829H23.6586V15.9972C23.6586 14.5713 23.6258 12.7322 21.0656 12.7322C18.4726 12.7322 18.0787 14.2891 18.0787 15.8964V21.9829H13.1028V9.66885H17.8818V11.3517H17.9475C18.6105 10.3843 20.2385 9.3615 22.6608 9.3615C27.7089 9.3615 28.6411 11.911 28.6411 15.2263V21.9829Z" fill="white"/>
</g>
<defs>
<clipPath id="clip0_664_3303">
<rect width="33.6105" height="25.797" fill="white"/>
</clipPath>
</defs>
</svg>
