<svg width="35" height="26" viewBox="0 0 35 26" fill="none" xmlns="http://www.w3.org/2000/svg">
<g clip-path="url(#clip0_664_3301)">
<path d="M33.7737 7.73912C33.7737 7.73912 33.4455 5.96054 32.4345 5.17957C31.1545 4.15172 29.7234 4.14668 29.0669 4.08622C24.3667 3.82422 17.3098 3.82422 17.3098 3.82422H17.2967C17.2967 3.82422 10.2398 3.82422 5.53961 4.08622C4.88316 4.14668 3.45209 4.15172 2.172 5.17957C1.16107 5.96054 0.839403 7.73912 0.839403 7.73912C0.839403 7.73912 0.498047 9.83009 0.498047 11.916V13.871C0.498047 15.9569 0.832838 18.0479 0.832838 18.0479C0.832838 18.0479 1.16107 19.8264 2.16544 20.6074C3.44553 21.6353 5.12605 21.6 5.87441 21.7108C8.56587 21.9073 17.3033 21.9678 17.3033 21.9678C17.3033 21.9678 24.3667 21.9577 29.0669 21.7008C29.7234 21.6403 31.1545 21.6353 32.4345 20.6074C33.4455 19.8264 33.7737 18.0479 33.7737 18.0479C33.7737 18.0479 34.1085 15.9619 34.1085 13.871V11.916C34.1085 9.83009 33.7737 7.73912 33.7737 7.73912ZM13.8306 16.2441V8.9937L22.9094 12.6315L13.8306 16.2441Z" fill="white"/>
</g>
<defs>
<clipPath id="clip0_664_3301">
<rect width="33.6105" height="25.797" fill="white" transform="translate(0.498047)"/>
</clipPath>
</defs>
</svg>
