<svg width="34" height="26" viewBox="0 0 34 26" fill="none" xmlns="http://www.w3.org/2000/svg">
<g clip-path="url(#clip0_664_3298)">
<path d="M16.8599 2.32274C21.3501 2.32274 21.8818 2.33786 23.6476 2.39832C25.2888 2.45374 26.175 2.66536 26.7658 2.8417C27.547 3.07347 28.1115 3.35563 28.6958 3.80405C29.2866 4.25752 29.6476 4.68579 29.9496 5.28537C30.1794 5.73883 30.4551 6.42407 30.5273 7.67865C30.6061 9.03904 30.6258 9.44716 30.6258 12.8884C30.6258 16.3348 30.6061 16.7429 30.5273 18.0982C30.4551 19.3579 30.1794 20.038 29.9496 20.4915C29.6476 21.0911 29.28 21.5244 28.6958 21.9728C28.105 22.4263 27.547 22.7034 26.7658 22.9352C26.175 23.1115 25.2822 23.3231 23.6476 23.3786C21.8752 23.439 21.3435 23.4541 16.8599 23.4541C12.3698 23.4541 11.838 23.439 10.0722 23.3786C8.43104 23.3231 7.54483 23.1115 6.95402 22.9352C6.17284 22.7034 5.60829 22.4213 5.02405 21.9728C4.43324 21.5194 4.07219 21.0911 3.77022 20.4915C3.54046 20.038 3.26475 19.3528 3.19254 18.0982C3.11376 16.7378 3.09407 16.3297 3.09407 12.8884C3.09407 9.44212 3.11376 9.034 3.19254 7.67865C3.26475 6.41903 3.54046 5.73883 3.77022 5.28537C4.07219 4.68579 4.4398 4.25248 5.02405 3.80405C5.61485 3.35059 6.17284 3.07347 6.95402 2.8417C7.54483 2.66536 8.43761 2.45374 10.0722 2.39832C11.838 2.33786 12.3698 2.32274 16.8599 2.32274ZM16.8599 0C12.2976 0 11.7264 0.0151154 9.93432 0.0755773C8.14877 0.136039 6.9212 0.357732 5.85774 0.675157C4.74833 1.0077 3.80961 1.44604 2.87744 2.16655C1.93871 2.88201 1.3676 3.60252 0.934336 4.44898C0.52077 5.27025 0.23193 6.20741 0.153156 7.57788C0.0743811 8.95842 0.0546875 9.39677 0.0546875 12.8985C0.0546875 16.4003 0.0743811 16.8386 0.153156 18.2141C0.23193 19.5846 0.52077 20.5268 0.934336 21.343C1.3676 22.1945 1.93871 22.915 2.87744 23.6305C3.80961 24.346 4.74833 24.7893 5.85118 25.1168C6.9212 25.4343 8.1422 25.656 9.92776 25.7164C11.7199 25.7769 12.291 25.792 16.8533 25.792C21.4157 25.792 21.9868 25.7769 23.7789 25.7164C25.5645 25.656 26.7921 25.4343 27.8555 25.1168C28.9584 24.7893 29.8971 24.346 30.8293 23.6305C31.7614 22.915 32.3391 22.1945 32.7658 21.3481C33.1794 20.5268 33.4682 19.5896 33.547 18.2192C33.6258 16.8437 33.6454 16.4053 33.6454 12.9036C33.6454 9.40181 33.6258 8.96346 33.547 7.58796C33.4682 6.21749 33.1794 5.27529 32.7658 4.45906C32.3522 3.60252 31.7811 2.88201 30.8424 2.16655C29.9102 1.45108 28.9715 1.0077 27.8687 0.680195C26.7986 0.362771 25.5776 0.141078 23.7921 0.0806157C21.9934 0.0151155 21.4223 0 16.8599 0Z" fill="white"/>
<path d="M16.8609 6.27246C12.095 6.27246 8.22852 9.24013 8.22852 12.8981C8.22852 16.556 12.095 19.5237 16.8609 19.5237C21.6267 19.5237 25.4933 16.556 25.4933 12.8981C25.4933 9.24013 21.6267 6.27246 16.8609 6.27246ZM16.8609 17.1959C13.769 17.1959 11.2613 15.2712 11.2613 12.8981C11.2613 10.5249 13.769 8.60024 16.8609 8.60024C19.9528 8.60024 22.4604 10.5249 22.4604 12.8981C22.4604 15.2712 19.9528 17.1959 16.8609 17.1959Z" fill="white"/>
<path d="M27.849 6.01068C27.849 6.86723 26.9431 7.5575 25.8337 7.5575C24.7177 7.5575 23.8184 6.86219 23.8184 6.01068C23.8184 5.15414 24.7243 4.46387 25.8337 4.46387C26.9431 4.46387 27.849 5.15918 27.849 6.01068Z" fill="white"/>
</g>
<defs>
<clipPath id="clip0_664_3298">
<rect width="33.6105" height="25.797" fill="white" transform="translate(0.0546875)"/>
</clipPath>
</defs>
</svg>
