<svg width="31" height="41" viewBox="0 0 31 41" fill="none" xmlns="http://www.w3.org/2000/svg">
<g clip-path="url(#clip0_648_2112)">
<path d="M28.4664 0H2.26963C1.01473 0 0 1.32129 0 2.95488V38.0371C0 39.6707 1.01473 41 2.26963 41H28.4664C29.7213 41 30.742 39.6707 30.742 38.0451V2.95488C30.742 1.32129 29.7213 0 28.4664 0ZM9.12054 34.9381H4.55727V15.367H9.12054V34.9381ZM6.8389 12.7004C5.37385 12.7004 4.191 11.1229 4.191 9.17695C4.191 7.23105 5.37385 5.65352 6.8389 5.65352C8.29795 5.65352 9.4808 7.23105 9.4808 9.17695C9.4808 11.1148 8.29795 12.7004 6.8389 12.7004ZM26.1968 34.9381H21.6395V25.4248C21.6395 23.1586 21.6095 20.2357 19.2678 20.2357C16.8961 20.2357 16.5359 22.7102 16.5359 25.2646V34.9381H11.9846V15.367H16.3557V18.0416H16.4158C17.0222 16.5041 18.5113 14.8785 20.7269 14.8785C25.3442 14.8785 26.1968 18.9305 26.1968 24.1996V34.9381Z" fill="white"/>
</g>
<defs>
<clipPath id="clip0_648_2112">
<rect width="30.742" height="41" fill="white"/>
</clipPath>
</defs>
</svg>
