<svg width="35" height="26" viewBox="0 0 35 26" fill="none" xmlns="http://www.w3.org/2000/svg">
<g clip-path="url(#clip0_664_3300)">
<path d="M17.2427 0C7.96153 0 0.4375 5.77492 0.4375 12.8985C0.4375 18.9474 5.86357 24.0232 13.1833 25.4173V16.8403H9.71802V12.8985H13.1833V11.2C13.1833 6.8099 15.7719 4.77503 21.3876 4.77503C22.4523 4.77503 24.2895 4.93549 25.041 5.09543V8.66832C24.6444 8.63633 23.9554 8.62034 23.0997 8.62034C20.3443 8.62034 19.2795 9.42159 19.2795 11.5044V12.8985H24.7688L23.8257 16.8403H19.2795V25.7026C27.6008 24.9313 34.0486 19.4933 34.0486 12.8985C34.048 5.77492 26.5239 0 17.2427 0Z" fill="white"/>
</g>
<defs>
<clipPath id="clip0_664_3300">
<rect width="33.6105" height="25.797" fill="white" transform="translate(0.4375)"/>
</clipPath>
</defs>
</svg>
