<svg width="40" height="40" viewBox="0 0 40 40" fill="none" xmlns="http://www.w3.org/2000/svg">
<g clip-path="url(#clip0_301_1034)">
<path d="M38.8281 12C38.8281 12 38.4523 9.24219 37.295 8.03125C35.8296 6.4375 34.1913 6.42969 33.4398 6.33594C28.059 5.92969 19.9804 5.92969 19.9804 5.92969H19.9653C19.9653 5.92969 11.8867 5.92969 6.50592 6.33594C5.75442 6.42969 4.11614 6.4375 2.65071 8.03125C1.49339 9.24219 1.12516 12 1.12516 12C1.12516 12 0.734375 15.2422 0.734375 18.4766V21.5078C0.734375 24.7422 1.11764 27.9844 1.11764 27.9844C1.11764 27.9844 1.49339 30.7422 2.64319 31.9531C4.10862 33.5469 6.03247 33.4922 6.88918 33.6641C9.97035 33.9688 19.9729 34.0625 19.9729 34.0625C19.9729 34.0625 28.059 34.0469 33.4398 33.6484C34.1913 33.5547 35.8296 33.5469 37.295 31.9531C38.4523 30.7422 38.8281 27.9844 38.8281 27.9844C38.8281 27.9844 39.2113 24.75 39.2113 21.5078V18.4766C39.2113 15.2422 38.8281 12 38.8281 12ZM15.9974 25.1875V13.9453L26.3907 19.5859L15.9974 25.1875Z" fill="white"/>
</g>
<defs>
<clipPath id="clip0_301_1034">
<rect width="38.477" height="40" fill="white" transform="translate(0.734375)"/>
</clipPath>
</defs>
</svg>
