<svg width="40" height="40" viewBox="0 0 40 40" fill="none" xmlns="http://www.w3.org/2000/svg">
<g clip-path="url(#clip0_301_1033)">
<path d="M20.1018 0C9.47673 0 0.863281 8.9544 0.863281 20C0.863281 29.3792 7.075 37.2496 15.4545 39.4112V26.112H11.4875V20H15.4545V17.3664C15.4545 10.5592 18.418 7.404 24.8467 7.404C26.0657 7.404 28.1688 7.6528 29.0292 7.9008V13.4408C28.5752 13.3912 27.7864 13.3664 26.8068 13.3664C23.6524 13.3664 22.4335 14.6088 22.4335 17.8384V20H28.7175L27.6379 26.112H22.4335V39.8536C31.9596 38.6576 39.341 30.2256 39.341 20C39.3402 8.9544 30.7268 0 20.1018 0Z" fill="white"/>
</g>
<defs>
<clipPath id="clip0_301_1033">
<rect width="38.477" height="40" fill="white" transform="translate(0.863281)"/>
</clipPath>
</defs>
</svg>
