<svg width="32" height="41" viewBox="0 0 32 41" fill="none" xmlns="http://www.w3.org/2000/svg">
<g clip-path="url(#clip0_648_2109)">
<path d="M16.3359 0C7.84676 0 0.964844 9.17826 0.964844 20.5C0.964844 30.1137 5.92784 38.1808 12.6228 40.3965V26.7648H9.45333V20.5H12.6228V17.8006C12.6228 10.8232 14.9906 7.5891 20.127 7.5891C21.1009 7.5891 22.7812 7.84412 23.4686 8.09832V13.7768C23.1059 13.726 22.4757 13.7006 21.693 13.7006C19.1727 13.7006 18.1988 14.974 18.1988 18.2844V20.5H23.2196L22.357 26.7648H18.1988V40.8499C25.8099 39.624 31.7075 30.9812 31.7075 20.5C31.7069 9.17826 24.825 0 16.3359 0Z" fill="white"/>
</g>
<defs>
<clipPath id="clip0_648_2109">
<rect width="30.742" height="41" fill="white" transform="translate(0.964844)"/>
</clipPath>
</defs>
</svg>
