<svg width="40" height="40" viewBox="0 0 40 40" fill="none" xmlns="http://www.w3.org/2000/svg">
<g clip-path="url(#clip0_368_767)">
<path d="M36.5877 0H3.79967C2.22902 0 0.958984 1.28906 0.958984 2.88281V37.1094C0.958984 38.7031 2.22902 40 3.79967 40H36.5877C38.1584 40 39.4359 38.7031 39.4359 37.1172V2.88281C39.4359 1.28906 38.1584 0 36.5877 0ZM12.3743 34.0859H6.66289V14.9922H12.3743V34.0859ZM9.5186 12.3906C7.68494 12.3906 6.20447 10.8516 6.20447 8.95312C6.20447 7.05469 7.68494 5.51562 9.5186 5.51562C11.3448 5.51562 12.8252 7.05469 12.8252 8.95312C12.8252 10.8438 11.3448 12.3906 9.5186 12.3906ZM33.7471 34.0859H28.0431V24.8047C28.0431 22.5938 28.0056 19.7422 25.0747 19.7422C22.1063 19.7422 21.6554 22.1562 21.6554 24.6484V34.0859H15.959V14.9922H21.4299V17.6016H21.5051C22.2641 16.1016 24.1278 14.5156 26.9009 14.5156C32.6799 14.5156 33.7471 18.4688 33.7471 23.6094V34.0859Z" fill="white"/>
</g>
<defs>
<clipPath id="clip0_368_767">
<rect width="38.477" height="40" fill="white" transform="translate(0.958984)"/>
</clipPath>
</defs>
</svg>
