<svg width="31" height="41" viewBox="0 0 31 41" fill="none" xmlns="http://www.w3.org/2000/svg">
<g clip-path="url(#clip0_648_2110)">
<path d="M30.4436 12.3002C30.4436 12.3002 30.1434 9.47344 29.2188 8.23223C28.0479 6.59863 26.739 6.59062 26.1385 6.49453C21.8395 6.07812 15.3848 6.07812 15.3848 6.07812H15.3728C15.3728 6.07812 8.9182 6.07812 4.61912 6.49453C4.01869 6.59062 2.70975 6.59863 1.53891 8.23223C0.614247 9.47344 0.320036 12.3002 0.320036 12.3002C0.320036 12.3002 0.0078125 15.6234 0.0078125 18.9387V22.0457C0.0078125 25.3609 0.314032 28.6842 0.314032 28.6842C0.314032 28.6842 0.614247 31.5109 1.53291 32.7521C2.70375 34.3857 4.24085 34.3297 4.92534 34.5059C7.3871 34.8182 15.3788 34.9143 15.3788 34.9143C15.3788 34.9143 21.8395 34.8982 26.1385 34.4898C26.739 34.3937 28.0479 34.3857 29.2188 32.7521C30.1434 31.5109 30.4436 28.6842 30.4436 28.6842C30.4436 28.6842 30.7499 25.3689 30.7499 22.0457V18.9387C30.7499 15.6234 30.4436 12.3002 30.4436 12.3002ZM12.2026 25.8174V14.2941L20.5065 20.0758L12.2026 25.8174Z" fill="white"/>
</g>
<defs>
<clipPath id="clip0_648_2110">
<rect width="30.742" height="41" fill="white" transform="translate(0.0078125)"/>
</clipPath>
</defs>
</svg>
