<svg width="31" height="41" viewBox="0 0 31 41" fill="none" xmlns="http://www.w3.org/2000/svg">
<g clip-path="url(#clip0_648_2107)">
<path d="M15.4101 3.6916C19.517 3.6916 20.0034 3.71562 21.6185 3.81172C23.1196 3.8998 23.9302 4.23613 24.4706 4.51641C25.1851 4.88477 25.7015 5.3332 26.2358 6.0459C26.7762 6.7666 27.1065 7.44727 27.3827 8.4002C27.5928 9.1209 27.845 10.21 27.911 12.2039C27.9831 14.366 28.0011 15.0146 28.0011 20.484C28.0011 25.9613 27.9831 26.61 27.911 28.7641C27.845 30.766 27.5928 31.8471 27.3827 32.5678C27.1065 33.5207 26.7702 34.2094 26.2358 34.9221C25.6955 35.6428 25.1851 36.0832 24.4706 36.4516C23.9302 36.7318 23.1136 37.0682 21.6185 37.1562C19.9974 37.2523 19.511 37.2764 15.4101 37.2764C11.3031 37.2764 10.8168 37.2523 9.20163 37.1562C7.70056 37.0682 6.88997 36.7318 6.34959 36.4516C5.63507 36.0832 5.1187 35.6348 4.58432 34.9221C4.04393 34.2014 3.7137 33.5207 3.4375 32.5678C3.22735 31.8471 2.97517 30.758 2.90912 28.7641C2.83707 26.602 2.81906 25.9533 2.81906 20.484C2.81906 15.0066 2.83707 14.358 2.90912 12.2039C2.97517 10.202 3.22735 9.1209 3.4375 8.4002C3.7137 7.44727 4.04994 6.75859 4.58432 6.0459C5.12471 5.32519 5.63507 4.88477 6.34959 4.51641C6.88997 4.23613 7.70656 3.8998 9.20163 3.81172C10.8168 3.71562 11.3031 3.6916 15.4101 3.6916ZM15.4101 0C11.2371 0 10.7147 0.0240234 9.07554 0.120117C7.44237 0.216211 6.31957 0.568555 5.34687 1.07305C4.33214 1.60156 3.47352 2.29824 2.62091 3.44336C1.7623 4.58047 1.23992 5.72559 0.843639 7.0709C0.465368 8.37617 0.201179 9.86562 0.129127 12.0437C0.0570754 14.2379 0.0390625 14.9346 0.0390625 20.5C0.0390625 26.0654 0.0570754 26.7621 0.129127 28.9482C0.201179 31.1264 0.465368 32.6238 0.843639 33.9211C1.23992 35.2744 1.7623 36.4195 2.62091 37.5566C3.47352 38.6937 4.33214 39.3984 5.34086 39.9189C6.31957 40.4234 7.43637 40.7758 9.06954 40.8719C10.7087 40.968 11.2311 40.992 15.4041 40.992C19.5771 40.992 20.0994 40.968 21.7386 40.8719C23.3718 40.7758 24.4946 40.4234 25.4673 39.9189C26.476 39.3984 27.3346 38.6937 28.1872 37.5566C29.0399 36.4195 29.5682 35.2744 29.9585 33.9291C30.3368 32.6238 30.601 31.1344 30.673 28.9562C30.7451 26.7701 30.7631 26.0734 30.7631 20.508C30.7631 14.9426 30.7451 14.2459 30.673 12.0598C30.601 9.88164 30.3368 8.38418 29.9585 7.08691C29.5802 5.72559 29.0579 4.58047 28.1993 3.44336C27.3466 2.30625 26.488 1.60156 25.4793 1.08105C24.5006 0.576562 23.3838 0.224219 21.7506 0.128125C20.1054 0.0240234 19.5831 0 15.4101 0Z" fill="white"/>
<path d="M15.4093 9.96973C11.0502 9.96973 7.51367 14.6863 7.51367 20.5C7.51367 26.3137 11.0502 31.0303 15.4093 31.0303C19.7685 31.0303 23.305 26.3137 23.305 20.5C23.305 14.6863 19.7685 9.96973 15.4093 9.96973ZM15.4093 27.3307C12.5813 27.3307 10.2877 24.2717 10.2877 20.5C10.2877 16.7283 12.5813 13.6693 15.4093 13.6693C18.2374 13.6693 20.531 16.7283 20.531 20.5C20.531 24.2717 18.2374 27.3307 15.4093 27.3307Z" fill="white"/>
<path d="M25.462 9.55313C25.462 10.9145 24.6334 12.0115 23.6187 12.0115C22.598 12.0115 21.7754 10.9065 21.7754 9.55313C21.7754 8.1918 22.604 7.09473 23.6187 7.09473C24.6334 7.09473 25.462 8.19981 25.462 9.55313Z" fill="white"/>
</g>
<defs>
<clipPath id="clip0_648_2107">
<rect width="30.742" height="41" fill="white" transform="translate(0.0390625)"/>
</clipPath>
</defs>
</svg>
