<svg width="40" height="40" viewBox="0 0 40 40" fill="none" xmlns="http://www.w3.org/2000/svg">
<g clip-path="url(#clip0_301_1031)">
<path d="M20.0646 3.60156C25.2049 3.60156 25.8136 3.625 27.8352 3.71875C29.7139 3.80469 30.7285 4.13281 31.4048 4.40625C32.2991 4.76563 32.9454 5.20313 33.6143 5.89844C34.2906 6.60156 34.7039 7.26563 35.0496 8.19531C35.3126 8.89844 35.6283 9.96094 35.7109 11.9062C35.8011 14.0156 35.8237 14.6484 35.8237 19.9844C35.8237 25.3281 35.8011 25.9609 35.7109 28.0625C35.6283 30.0156 35.3126 31.0703 35.0496 31.7734C34.7039 32.7031 34.2831 33.375 33.6143 34.0703C32.9379 34.7734 32.2991 35.2031 31.4048 35.5625C30.7285 35.8359 29.7064 36.1641 27.8352 36.25C25.8061 36.3438 25.1974 36.3672 20.0646 36.3672C14.9244 36.3672 14.3157 36.3438 12.2941 36.25C10.4154 36.1641 9.40082 35.8359 8.72447 35.5625C7.83018 35.2031 7.18389 34.7656 6.51505 34.0703C5.8387 33.3672 5.42537 32.7031 5.07968 31.7734C4.81665 31.0703 4.50102 30.0078 4.41836 28.0625C4.32818 25.9531 4.30563 25.3203 4.30563 19.9844C4.30563 14.6406 4.32818 14.0078 4.41836 11.9062C4.50102 9.95312 4.81665 8.89844 5.07968 8.19531C5.42537 7.26563 5.84621 6.59375 6.51505 5.89844C7.1914 5.19531 7.83018 4.76563 8.72447 4.40625C9.40082 4.13281 10.4229 3.80469 12.2941 3.71875C14.3157 3.625 14.9244 3.60156 20.0646 3.60156ZM20.0646 0C14.8417 0 14.1879 0.0234375 12.1363 0.117188C10.0922 0.210938 8.68689 0.554687 7.46946 1.04688C6.19942 1.5625 5.12477 2.24219 4.05764 3.35938C2.98299 4.46875 2.32918 5.58594 1.83319 6.89844C1.35974 8.17188 1.02908 9.625 0.938897 11.75C0.848717 13.8906 0.826172 14.5703 0.826172 20C0.826172 25.4297 0.848717 26.1094 0.938897 28.2422C1.02908 30.3672 1.35974 31.8281 1.83319 33.0938C2.32918 34.4141 2.98299 35.5312 4.05764 36.6406C5.12477 37.75 6.19942 38.4375 7.46194 38.9453C8.68689 39.4375 10.0847 39.7812 12.1288 39.875C14.1804 39.9688 14.8342 39.9922 20.0571 39.9922C25.2801 39.9922 25.9339 39.9688 27.9855 39.875C30.0296 39.7812 31.4349 39.4375 32.6523 38.9453C33.9149 38.4375 34.9895 37.75 36.0566 36.6406C37.1238 35.5312 37.7851 34.4141 38.2736 33.1016C38.747 31.8281 39.0777 30.375 39.1679 28.25C39.258 26.1172 39.2806 25.4375 39.2806 20.0078C39.2806 14.5781 39.258 13.8984 39.1679 11.7656C39.0777 9.64063 38.747 8.17969 38.2736 6.91406C37.8001 5.58594 37.1463 4.46875 36.0717 3.35938C35.0045 2.25 33.9299 1.5625 32.6674 1.05469C31.4424 0.5625 30.0446 0.21875 28.0005 0.125C25.9414 0.0234375 25.2876 0 20.0646 0Z" fill="white"/>
<path d="M20.0639 9.72656C14.608 9.72656 10.1816 14.3281 10.1816 20C10.1816 25.6719 14.608 30.2734 20.0639 30.2734C25.5198 30.2734 29.9462 25.6719 29.9462 20C29.9462 14.3281 25.5198 9.72656 20.0639 9.72656ZM20.0639 26.6641C16.5243 26.6641 13.6536 23.6797 13.6536 20C13.6536 16.3203 16.5243 13.3359 20.0639 13.3359C23.6035 13.3359 26.4742 16.3203 26.4742 20C26.4742 23.6797 23.6035 26.6641 20.0639 26.6641Z" fill="white"/>
<path d="M32.6455 9.32032C32.6455 10.6484 31.6084 11.7188 30.3384 11.7188C29.0608 11.7188 28.0312 10.6406 28.0312 9.32032C28.0312 7.99219 29.0683 6.92188 30.3384 6.92188C31.6084 6.92188 32.6455 8 32.6455 9.32032Z" fill="white"/>
</g>
<defs>
<clipPath id="clip0_301_1031">
<rect width="38.477" height="40" fill="white" transform="translate(0.826172)"/>
</clipPath>
</defs>
</svg>
