<svg width="20" height="20" viewBox="0 0 20 20" fill="none" xmlns="http://www.w3.org/2000/svg">
<path d="M19.4267 2.07826L19.3949 2.05762L15.3774 0L11.0412 6.0105L13.0362 8.77597C12.9765 9.8189 12.551 10.8029 11.8404 11.5416C11.1297 12.2804 10.1832 12.7227 9.18 12.7847L6.51988 10.7107L0.738281 15.2185L2.70108 19.3602L2.7176 19.3951L2.7375 19.4281C2.84225 19.6036 2.98845 19.7482 3.16218 19.8483C3.33591 19.9484 3.5314 20.0006 3.73004 20H4.7667C6.76411 20 8.74197 19.591 10.5873 18.7964C12.4327 18.0017 14.1095 16.837 15.5218 15.3687C16.9342 13.9004 18.0546 12.1573 18.819 10.2389C19.5833 8.32046 19.9768 6.2643 19.9768 4.18782V3.11008C19.9774 2.90359 19.9272 2.70036 19.8309 2.51975C19.7346 2.33914 19.5955 2.18715 19.4267 2.07826ZM18.4921 4.18782C18.4921 12.0556 12.3349 18.4566 4.7667 18.4566H3.92787L2.6146 15.685L6.52016 12.6399L8.69457 14.3352H8.942C10.423 14.3335 11.8428 13.7211 12.8901 12.6325C13.9373 11.5438 14.5263 10.0677 14.528 8.52811V8.27089L12.8972 6.01046L15.8261 1.95054L18.4921 3.31603V4.18782Z" fill="#25BEC8"/>
</svg>
